HIERARCHY
ROOT Hips
{
  OFFSET -125.086 92.215 135.881
  CHANNELS 6 Xposition Yposition Zposition Zrotation Xrotation Yrotation
  JOINT LeftUpLeg
  {
    OFFSET 8.64259 1.95398 -2.38835
    CHANNELS 3 Zrotation Xrotation Yrotation
    JOINT LeftLeg
    {
      OFFSET 43.7702 0 0
      CHANNELS 3 Zrotation Xrotation Yrotation
      JOINT LeftFoot
      {
        OFFSET 40.6238 0 0
        CHANNELS 3 Zrotation Xrotation Yrotation
        JOINT LeftToeBase
        {
          OFFSET 12.7242 0 0
          CHANNELS 3 Zrotation Xrotation Yrotation
          End Site
          {
            OFFSET 0 0 0
          }
        }
      }
    }
  }
  JOINT RightUpLeg
  {
    OFFSET -8.2249 1.95398 -2.59336
    CHANNELS 3 Zrotation Xrotation Yrotation
    JOINT RightLeg
    {
      OFFSET 43.5653 0 0
      CHANNELS 3 Zrotation Xrotation Yrotation
      JOINT RightFoot
      {
        OFFSET 40.6238 0 0
        CHANNELS 3 Zrotation Xrotation Yrotation
        JOINT RightToeBase
        {
          OFFSET 12.7242 0 0
          CHANNELS 3 Zrotation Xrotation Yrotation
          End Site
          {
            OFFSET 0 0 0
          }
        }
      }
    }
  }
  JOINT Spine
  {
    OFFSET 0.165834 0.87714 6.61349
    CHANNELS 3 Zrotation Xrotation Yrotation
    JOINT Spine1
    {
      OFFSET 7.38963 1.71661e-005 0
      CHANNELS 3 Zrotation Xrotation Yrotation
      JOINT Spine2
      {
        OFFSET 11.9445 1.14441e-005 0
        CHANNELS 3 Zrotation Xrotation Yrotation
        JOINT Spine3
        {
          OFFSET 14.7254 4.19617e-005 0
          CHANNELS 3 Zrotation Xrotation Yrotation
          JOINT Spine4
          {
            OFFSET 10.9679 0 0
            CHANNELS 3 Zrotation Xrotation Yrotation
            JOINT RightShoulder
            {
              OFFSET 2.46616 -1.6653 3.69651
              CHANNELS 3 Zrotation Xrotation Yrotation
              JOINT RightArm
              {
                OFFSET 13.0012 0 0
                CHANNELS 3 Zrotation Xrotation Yrotation
                JOINT RightForeArm
                {
                  OFFSET 28.7848 1.52588e-005 0
                  CHANNELS 3 Zrotation Xrotation Yrotation
                  JOINT RightHand
                  {
                    OFFSET 26.5688 1.52588e-005 0
                    CHANNELS 3 Zrotation Xrotation Yrotation
                    End Site
                    {
                      OFFSET 0 0 0
                    }
                  }
                }
              }
            }
            JOINT LeftShoulder
            {
              OFFSET 2.38034 -1.29275 -3.7523
              CHANNELS 3 Zrotation Xrotation Yrotation
              JOINT LeftArm
              {
                OFFSET 16.3182 6.10352e-005 0
                CHANNELS 3 Zrotation Xrotation Yrotation
                JOINT LeftForeArm
                {
                  OFFSET 27.0901 0 0
                  CHANNELS 3 Zrotation Xrotation Yrotation
                  JOINT LeftHand
                  {
                    OFFSET 24.5451 1.52588e-005 0
                    CHANNELS 3 Zrotation Xrotation Yrotation
                    End Site
                    {
                      OFFSET 0 0 0
                    }
                  }
                }
              }
            }
            JOINT Neck
            {
              OFFSET 5.0226 -0.0266342 0
              CHANNELS 3 Zrotation Xrotation Yrotation
              JOINT Head
              {
                OFFSET 6.69363 2.86102e-005 0
                CHANNELS 3 Zrotation Xrotation Yrotation
                End Site
                {
                  OFFSET 0 0 0
                }
              }
            }
          }
        }
      }
    }
  }
}
MOTION
Frames:	15
Frame Time:	0.0416667
-120.585 88.7837 -91.0283 86.6045 -40.6295 89.6252 176.037 51.8665 85.9046 -93.3659 5.73977 3.88221 52.9331 3.10912 14.5159 57.8383 -1.72985 5.3555 174.141 -2.31445 94.9528 -39.5688 -13.2331 3.82114 65.2982 -1.67438 11.4169 62.7899 -4.84981 2.29337 1.70337 8.2874 -90.6496 10.3212 3.09642 -1.55828 -1.34717 3.02486 -1.69314 -23.9105 3.42147 -0.554729 -3.89782 3.4215 -0.554725 104.741 -44.114 -77.8281 15.2787 -49.1918 -7.58054 5.34555 11.6233 -104.22 -12.3851 -0.267843 -2.75775 -76.6198 -40.92 98.9359 25.3264 50.9534 -23.1233 -35.3409 -4.98367 -100.576 14.0366 -1.85479 -16.5613 11.0082 -4.62287 3.06221 -10.7268 -4.6685 -9.33428 
-100.52 92.0834 -71.7212 85.0467 -41.4837 88.3118 175.816 48.8094 86.3207 -49.6465 9.96863 2.65678 50.9802 -0.540501 7.33837 60.0762 -1.63657 6.48172 177.596 -19.6811 94.0458 -23.3928 -12.4187 -1.32708 30.9467 9.00882 27.6029 28.6596 0.262309 -3.28495 2.06535 7.97443 -90.3811 10.9527 3.93549 -1.13353 -0.712886 3.88179 -1.30588 -23.2964 4.09396 0.103617 -3.28376 4.09397 0.103612 105.825 -44.6259 -76.0475 18.8832 -52.1516 -0.623273 9.18381 11.8973 -108.443 -13.8689 -0.126408 -4.33332 -78.2953 -39.9392 96.0736 22.538 54.3111 -17.5459 -32.5262 -5.2776 -102.577 13.5898 -1.84998 -16.8725 9.3737 -5.81069 6.67692 -13.1018 -5.98929 -14.6362 
-82.1775 91.7016 -53.6001 90.467 -40.9635 93.6767 -179.896 39.4732 85.0985 -34.5009 14.3986 0.230822 44.0635 -6.01497 2.2135 64.6917 -1.6001 7.99893 176.371 -9.61462 96.8292 -70.0922 -21.0135 -2.11536 34.6721 9.38408 11.8772 30.262 -0.375251 1.21548 1.55821 8.53307 -90.5925 9.82369 2.83749 -1.39429 -1.84505 2.77338 -1.51788 -24.404 3.12521 -0.476347 -4.39137 3.12521 -0.476348 106.702 -45.8213 -74.7014 21.6102 -47.221 4.87268 3.5518 12.7324 -107.374 -9.6755 0.0119289 -5.53954 -77.4494 -41.6855 97.5217 17.0503 49.9032 -18.1171 -28.2676 -5.06954 -99.756 12.6929 -1.67389 -16.2948 13.6037 -4.48897 3.44582 -14.8397 -4.36189 -8.98593 
-64.1074 88.721 -35.552 98.9303 -38.4444 92.6395 -175.09 24.0382 75.3809 -48.5481 17.1433 -2.80476 61.4182 8.11784 21.1269 44.5576 -1.07088 -0.992278 173.701 9.50371 86.4037 -110.581 -12.9168 -3.84457 40.0004 5.95693 9.15021 27.4227 0.855289 -6.33005 0.417844 9.40388 -89.7272 8.06798 0.953179 0.48808 -3.60252 0.97373 0.445653 -26.1397 0.762368 0.751954 -6.127 0.762384 0.751959 108.577 -48.0557 -71.9307 27.82 -41.2083 15.4866 -2.07145 13.5258 -107.958 -10.384 0.110788 -6.69812 -77.2018 -43.1572 97.9197 17.2672 42.4329 -28.908 -26.716 -4.28433 -93.598 11.5626 -1.41147 -15.1406 16.7148 -3.5744 -4.31409 -14.3628 -2.13213 -1.01415 
-44.2175 87.1451 -17.1126 92.0486 -34.0081 88.1078 -178.718 10.6304 75.9024 -52.648 22.8057 1.00816 69.8425 16.3778 29.014 53.8076 -1.72312 3.92727 178.542 42.0225 82.4721 -113.292 -9.67418 -3.91815 40.4477 5.30099 17.67 42.8954 -2.3199 -4.42528 -0.97142 8.38212 -89.5923 10.1171 -1.74984 0.956212 -1.55308 -1.70608 1.0323 -24.097 -1.9563 0.385951 -4.08437 -1.95632 0.385935 108.255 -44.6702 -72.0027 41.3516 -37.9141 34.121 -2.59068 15.579 -114.351 -11.8522 0.0931972 -6.31735 -76.9108 -42.6789 98.4095 28.3265 41.9288 -43.2219 -33.1447 -4.03691 -91.6016 8.67256 -1.1778 -15.5801 14.6093 -1.71089 -10.0806 -17.0127 0.424582 5.19112 
-22.521 91.5908 3.02806 92.3485 -31.202 94.1658 -174.764 -11.7141 86.7615 -41.8907 24.4007 7.11173 56.0616 0.251401 5.15779 62.8085 -2.30767 3.36056 172.346 46.5775 89.1015 -78.4002 -16.5361 -1.40893 45.6467 4.63227 8.31027 57.992 -5.07089 -2.92365 -1.65709 7.99366 -90.54 10.8738 -3.54857 -0.737874 -0.792628 -3.57759 -0.580801 -23.3571 -3.16269 -1.77113 -3.34448 -3.16269 -1.77113 105.524 -40.1225 -76.2028 52.8231 -30.7635 53.9559 -2.24525 17.8422 -120.906 -9.16811 0.156025 -7.66629 -78.4633 -39.933 95.7919 34.0422 47.3713 -49.3436 -35.0237 -4.06134 -95.0861 8.4422 -1.12575 -15.2744 11.944 0.155815 -16.5346 -19.8979 1.961 15.5982 
-1.69527 93.8 22.3334 91.582 -30.1334 93.0304 -177.517 -16.2211 90.0819 -55.7638 18.4211 8.83536 42.8272 -6.40757 0.244373 55.7898 -1.91875 3.10293 174.845 37.9655 85.8088 -29.3106 -10.106 1.42156 40.0334 6.68067 18.2205 69.8141 -5.79928 1.79922 -2.2604 7.76095 -90.6475 11.3441 -4.80008 -0.807141 -0.318025 -4.83093 -0.594618 -22.9127 -4.33519 -2.21497 -2.9001 -4.33521 -2.21497 104.12 -39.565 -78.655 50.8454 -31.1885 54.7242 -1.52851 18.0724 -120.816 -4.65488 0.11601 -9.00664 -78.0135 -38.0166 96.5429 34.5724 50.889 -44.5919 -37.2769 -2.32346 -103.821 8.46448 -1.13078 -15.3026 11.0855 0.640976 -23.8821 -21.9761 2.49615 24.0257 
17.5285 91.5841 40.5678 96.6313 -30.9868 95.2588 -178.729 -8.33966 89.3086 -94.5331 7.45971 5.54291 46.13 -2.27686 6.68572 57.2204 -2.35874 0.486766 171.443 29.7441 87.3889 -21.3859 -6.9014 4.35346 34.5844 8.88639 23.799 68.184 -5.99068 0.406179 -1.69573 8.31204 -90.6156 10.2342 -3.65922 -0.90816 -1.43189 -3.69566 -0.746024 -23.9978 -3.21705 -1.96686 -3.98513 -3.21706 -1.96687 106.316 -42.4686 -75.0291 42.567 -33.6116 38.4937 -1.28891 14.9356 -115.174 -6.6485 0.174271 -8.84768 -78.1837 -37.3669 96.2459 29.71 45.8723 -41.4133 -33.1627 -2.92493 -101.734 8.28956 -1.08589 -14.981 11.0656 -0.589169 -20.2072 -19.0039 1.59119 19.4844 
36.2781 89.0967 58.6338 100.228 -32.5253 103.424 -177.66 12.2686 93.954 -117.514 1.95206 3.6981 48.9516 3.04735 12.3016 53.4488 -1.91138 1.88172 169.543 25.0179 96.4369 -49.5184 -17.8905 7.60553 57.5814 -0.455176 0.834489 43.7688 -2.30484 0.726555 -0.767856 8.6121 -91.4807 9.6151 -2.1993 -2.76626 -2.05671 -2.31887 -2.66686 -24.5744 -1.26675 -3.29885 -4.56172 -1.26677 -3.29886 108.341 -46.7708 -72.1379 26.5981 -41.6371 13.7239 3.70702 11.8653 -108.394 -11.6635 0.195129 -7.39258 -76.5892 -40.9249 98.9877 25.2937 43.5762 -37.0975 -33.7181 -3.82196 -97.2376 14.3306 -1.52937 -14.1481 11.6313 -0.280296 -8.34394 -18.612 0.582164 8.84659 
56.4966 88.8779 78.5521 97.8621 -33.29 101.225 176.306 33.8499 91.9327 -107.056 8.80637 3.82117 50.2392 1.88783 9.89073 57.1937 -2.21284 1.58689 174.869 9.27122 94.3644 -51.5881 -14.1084 4.39859 71.1903 -7.54277 -1.66388 56.346 -4.28931 -0.297495 0.190065 8.03964 -91.4295 10.7988 -0.281931 -2.82247 -0.875067 -0.405823 -2.80736 -23.3877 0.579133 -2.77682 -3.37505 0.579154 -2.77681 107.438 -44.6462 -73.3592 24.6723 -41.535 2.02428 5.33944 10.3152 -105.072 -10.3036 -0.057123 -4.83622 -75.9599 -42.0697 100.015 21.9977 44.3064 -31.4316 -34.3055 -4.52933 -93.9338 11.3133 -1.3553 -14.8826 9.83121 -2.37791 -3.34135 -19.8711 -2.06088 3.20532 
77.4414 92.7579 98.2279 97.2926 -37.1427 95.6993 179.382 36.2499 86.4917 -63.1782 6.17771 2.92855 49.2217 -0.47458 10.2753 58.2471 -1.8715 4.56175 176.345 -14.4792 97.2277 -34.6886 -13.7289 -0.487826 50.8525 4.34627 15.8853 48.985 -2.62229 -1.27803 1.00241 7.44878 -90.4383 11.9835 1.78556 -1.08148 0.313118 1.73624 -1.15903 -22.2298 2.02801 -0.494715 -2.21713 2.028 -0.494717 106.94 -43.6825 -74.0857 25.8128 -48.7397 2.35764 6.41625 11.9153 -106.03 -9.80141 -0.280203 -1.94227 -76.8193 -40.2091 98.6069 17.1084 51.7321 -17.2451 -32.5783 -5.91847 -97.4527 10.6259 -1.43141 -16.0894 2.75907 -3.9885 -2.88185 -18.8815 -2.96171 -3.75178 
96.7921 94.0098 116.914 95.4408 -41.4119 94.4262 -179.83 31.1029 88.7385 -19.0996 12.5408 1.10353 40.064 -7.5416 2.99347 65.1207 -2.10147 4.96538 178.345 -16.6453 93.81 -53.4126 -18.9276 -3.67603 41.6428 6.68818 13.0803 28.1423 1.08368 -9.89531 1.55321 7.21713 -90.2452 12.4532 2.96984 -0.826282 0.785318 2.9306 -0.956306 -21.7776 3.08074 0.105333 -1.76492 3.08075 0.105333 106.429 -42.8998 -74.8732 28.013 -51.2439 5.28394 7.68147 12.4468 -106.61 -8.53317 -0.225061 -2.2241 -77.4169 -39.9545 97.5885 13.6117 53.7595 -10.0283 -31.5112 -6.03136 -100.29 10.1115 -1.45023 -16.7622 1.67862 -4.47525 0.480267 -18.8805 -3.44294 -8.16413 
115.112 90.8776 134.319 102.56 -38.4576 99.5396 -178.664 27.2133 87.4525 -24.2196 12.5921 0.714545 35.5984 -8.76319 -9.2266 72.2585 -1.17994 9.49376 174.875 -7.30937 92.8388 -95.7363 -13.8075 -3.7422 42.679 5.54278 11.1209 28.0769 0.890437 -7.35709 0.884685 8.10593 -90.2473 10.6673 1.64803 -0.641769 -1.00281 1.61821 -0.713697 -23.5463 1.76469 -0.116661 -3.53361 1.7647 -0.116656 105.953 -43.1832 -75.7096 30.5809 -48.2258 7.23696 5.39961 12.2536 -104.26 -8.26362 0.0162456 -5.74503 -77.8001 -39.5781 96.9276 13.0781 49.1067 -11.8739 -30.0861 -5.54967 -101.478 8.56602 -1.22937 -16.2224 2.00221 -3.53952 -1.8592 -14.7677 -2.76458 -4.65321 
133.578 87.2415 151.659 107.814 -39.5702 96.8655 -175.966 20.1267 79.3737 -51.9504 28.6162 -0.468639 60.3529 6.96854 29.1953 41.5659 -1.11567 0.577642 178.464 14.472 84.2153 -119.217 -11.6443 -4.06283 44.2492 4.05229 13.7793 35.8255 -0.864936 -3.76425 0.0987824 8.68196 -89.3731 9.50051 0.479435 1.20062 -2.17096 0.531828 1.17835 -24.701 0.0965106 1.2892 -4.68838 0.0964979 1.28919 106.699 -43.7718 -74.5037 36.1674 -45.9103 14.3461 6.73077 11.3753 -106.257 -12.4663 -0.392488 -2.13658 -76.6045 -40.0283 98.9847 20.2969 44.2518 -25.941 -33.1573 -5.38627 -97.3493 8.6158 -1.09088 -15.0365 1.85545 -1.23752 -6.91217 -11.1563 -0.231926 1.23036 
152.912 87.7962 168.406 110.19 -40.8593 99.6455 -176.422 6.58114 79.8533 -64.4045 17.4561 1.92326 62.0005 6.12386 11.4377 62.2239 -1.8715 6.58243 -178.159 33.9121 84.4546 -103.826 -17.2295 -4.0754 42.7076 5.59063 11.9892 58.3321 -4.3331 2.32002 -0.659138 8.72794 -89.4921 9.4325 -1.08573 1.08035 -2.23838 -1.03712 1.12709 -24.7765 -1.36024 0.704076 -4.76385 -1.36025 0.704077 106.231 -42.4162 -75.1613 44.1363 -41.7705 24.2568 7.63278 10.4211 -107.442 -16.3436 -0.512308 -2.82404 -76.3471 -42.4172 99.3543 19.5208 42.5643 -32.5491 -44.5859 -5.76131 -89.0534 24.7337 -2.20765 -12.6996 2.70664 1.21721 -10.8559 -15.0265 1.90968 10.1679 
